<?xml version="1.0" encoding="UTF-8" standalone="no"?>
<svg width="20px" height="20px" viewBox="0 0 20 20" version="1.1" xmlns="http://www.w3.org/2000/svg" xmlns:xlink="http://www.w3.org/1999/xlink">
    <!-- Generator: Sketch 40.3 (33839) - http://www.bohemiancoding.com/sketch -->
    <title>icon_fb</title>
    <desc>Created with Sketch.</desc>
    <defs></defs>
    <g id="Page-1" stroke="none" stroke-width="1" fill="none" fill-rule="evenodd">
        <g id="Desktop-HD-Copy-19" transform="translate(-1000.000000, -80.000000)" fill="#FFFFFF">
            <g id="Group-3" transform="translate(990.000000, 70.000000)">
                <g id="Group-23">
                    <g id="Group-2">
                        <g id="fb">
                            <g id="icon_fb" transform="translate(10.000000, 10.000000)">
                                <rect id="bg" opacity="0" x="0" y="0" width="20" height="20"></rect>
                                <path d="M10.553,11.061 L12.608,11.061 L12.917,8.757 L10.553,8.757 L10.553,7.279 C10.553,6.61 10.739,6.154 11.733,6.154 L13,6.154 L13,4.087 C12.3862101,4.02665495 11.7697446,3.99761732 11.153,4 C9.326,4 8.075,5.072 8.075,7.05 L8.075,8.757 L6,8.757 L6,11.061 L8.075,11.061 L8.075,17 L10.553,17 L10.553,11.061 L10.553,11.061 Z" id="Shape"></path>
                            </g>
                        </g>
                    </g>
                </g>
            </g>
        </g>
    </g>
</svg>