<?xml version="1.0" encoding="UTF-8" standalone="no"?>
<svg width="20px" height="20px" viewBox="0 0 20 20" version="1.1" xmlns="http://www.w3.org/2000/svg" xmlns:xlink="http://www.w3.org/1999/xlink">
    <!-- Generator: Sketch 40.3 (33839) - http://www.bohemiancoding.com/sketch -->
    <title>icon_tw</title>
    <desc>Created with Sketch.</desc>
    <defs></defs>
    <g id="Page-1" stroke="none" stroke-width="1" fill="none" fill-rule="evenodd">
        <g id="Desktop-HD-Copy-19" transform="translate(-1055.000000, -80.000000)" fill="#FFFFFF">
            <g id="Group-3" transform="translate(990.000000, 70.000000)">
                <g id="Group-23">
                    <g id="Group-2">
                        <g id="tw" transform="translate(55.000000, 0.000000)">
                            <g id="icon_tw" transform="translate(10.000000, 10.000000)">
                                <rect id="bg" opacity="0" x="0" y="0" width="20" height="20"></rect>
                                <path d="M16.641,4.208 C16.1220884,4.53735309 15.5483532,4.7710469 14.947,4.898 C14.4581873,4.33147315 13.7482475,4.00403302 13,4 C11.527,4 10.333,5.273 10.333,6.844 C10.3327307,7.06190119 10.3562026,7.27918318 10.403,7.492 C8.186,7.374 6.22,6.242 4.905,4.521 C4.66634496,4.95973127 4.54218343,5.45156226 4.544,5.951 C4.544,6.937 5.014,7.808 5.73,8.318 C5.30377737,8.30296435 4.88825832,8.18051006 4.522,7.962 L4.522,7.998 C4.522,9.376 5.442,10.526 6.662,10.787 C6.27025198,10.9008207 5.85669612,10.9176375 5.457,10.836 C5.797,11.966 6.782,12.788 7.949,12.811 C6.8543412,13.7368179 5.42297648,14.1637988 4,13.989 C5.20180966,14.8191417 6.62735736,15.2647997 8.088,15.267 C12.994,15.267 15.677,10.933 15.677,7.174 C15.677,7.051 15.674,6.928 15.669,6.806 C16.1962546,6.39793719 16.6469085,5.89954309 17,5.334 C16.5161071,5.56306571 15.9990697,5.71426204 15.468,5.782 C16.018,5.43 16.442,4.872 16.641,4.208 Z" id="Shape"></path>
                            </g>
                        </g>
                    </g>
                </g>
            </g>
        </g>
    </g>
</svg>