<?xml version="1.0" encoding="UTF-8" standalone="no"?>
<svg width="20px" height="20px" viewBox="0 0 20 20" version="1.1" xmlns="http://www.w3.org/2000/svg" xmlns:xlink="http://www.w3.org/1999/xlink">
    <!-- Generator: Sketch 40.3 (33839) - http://www.bohemiancoding.com/sketch -->
    <title>icon_tw_c</title>
    <desc>Created with Sketch.</desc>
    <defs></defs>
    <g id="Page-1" stroke="none" stroke-width="1" fill="none" fill-rule="evenodd">
        <g id="Desktop-HD-Copy-18" transform="translate(-1055.000000, -80.000000)">
            <g id="Group-3-Copy" transform="translate(990.000000, 70.000000)">
                <g id="Group-23">
                    <g id="Group-2">
                        <g id="tw" transform="translate(55.000000, 0.000000)">
                            <g id="icon_tw" transform="translate(10.000000, 10.000000)">
                                <rect id="bg" fill="#FFFFFF" opacity="0" x="0" y="0" width="20" height="20"></rect>
                                <path d="M16.6133846,4.12400153 C16.0545567,4.47868947 15.436688,4.73035973 14.7890769,4.86707845 C14.2626632,4.25697261 13.4981127,3.90434478 12.6923077,3.90000153 C11.106,3.90000153 9.82015385,5.2709246 9.82015385,6.96277076 C9.81986388,7.19743358 9.84514122,7.43142956 9.89553846,7.66061691 C7.508,7.53353999 5.39076923,6.31446306 3.97461538,4.46107845 C3.71760226,4.93355828 3.58388985,5.46322242 3.58584615,6.00107845 C3.58584615,7.0629246 4.092,8.0009246 4.86307692,8.55015537 C4.40406794,8.53396313 3.95658588,8.40208928 3.56215385,8.16677076 L3.56215385,8.20553999 C3.56215385,9.68953999 4.55292308,10.9280015 5.86676923,11.2090784 C5.44488674,11.3316546 4.9995189,11.349765 4.56907692,11.2618477 C4.93523077,12.4787708 5.996,13.3640015 7.25276923,13.3887708 C6.07390591,14.3858054 4.53243621,14.845631 3,14.6573861 C4.29425656,15.5513849 5.82946177,16.0313243 7.40246154,16.0336938 C12.6858462,16.0336938 15.5752308,11.3663092 15.5752308,7.31815537 C15.5752308,7.18569383 15.572,7.0532323 15.5666154,6.92184768 C16.134428,6.48239542 16.6197476,5.94566332 17,5.33661691 C16.4788846,5.58330306 15.922075,5.74612987 15.3501538,5.81907845 C15.9424615,5.44000153 16.3990769,4.83907845 16.6133846,4.12400153 Z" id="Shape" fill="#4DB9FE"></path>
                            </g>
                        </g>
                    </g>
                </g>
            </g>
        </g>
    </g>
</svg>