<?xml version="1.0" encoding="UTF-8" standalone="no"?>
<svg width="73px" height="73px" viewBox="0 0 73 73" version="1.1" xmlns="http://www.w3.org/2000/svg" xmlns:xlink="http://www.w3.org/1999/xlink">
    <!-- Generator: Sketch 40.3 (33839) - http://www.bohemiancoding.com/sketch -->
    <title>plus</title>
    <desc>Created with Sketch.</desc>
    <defs></defs>
    <g id="Page-1" stroke="none" stroke-width="1" fill="none" fill-rule="evenodd">
        <g id="Desktop-HD-Copy-18" transform="translate(-934.000000, -1513.000000)">
            <g id="Group-5" transform="translate(64.000000, 1049.000000)">
                <g id="Group-12" transform="translate(146.000000, 200.000000)">
                    <g id="Group-11" transform="translate(680.000000, 264.000000)">
                        <g id="plus" transform="translate(44.000000, 0.000000)">
                            <circle id="Oval-4" fill="#58E498" cx="36.5" cy="36.5" r="36.5"></circle>
                            <path d="M37.4722222,36.0416667 L37.4722222,20.9816878 C37.4722222,20.4302368 37.0369435,20 36.5,20 C35.959313,20 35.5277778,20.4395166 35.5277778,20.9816878 L35.5277778,36.0416667 L20.4677989,36.0416667 C19.916348,36.0416667 19.4861111,36.4769454 19.4861111,37.0138889 C19.4861111,37.5545759 19.9256277,37.9861111 20.4677989,37.9861111 L35.5277778,37.9861111 L35.5277778,53.0460899 C35.5277778,53.5975409 35.9630565,54.0277778 36.5,54.0277778 C37.040687,54.0277778 37.4722222,53.5882612 37.4722222,53.0460899 L37.4722222,37.9861111 L52.5322011,37.9861111 C53.083652,37.9861111 53.5138889,37.5508324 53.5138889,37.0138889 C53.5138889,36.4732019 53.0743723,36.0416667 52.5322011,36.0416667 L37.4722222,36.0416667 L37.4722222,36.0416667 Z" id="Combined-Shape" fill="#FFFFFF" opacity="0.600000024"></path>
                        </g>
                    </g>
                </g>
            </g>
        </g>
    </g>
</svg>