<svg width="20" height="20" viewBox="0 0 20 20" xmlns="http://www.w3.org/2000/svg"><title>icon_tw_c</title><path d="M16.613 4.124a5.54 5.54 0 0 1-1.824.743 2.79 2.79 0 0 0-2.097-.967c-1.586 0-2.872 1.37-2.872 3.063 0 .234.025.468.076.698-2.388-.127-4.505-1.347-5.921-3.2a3.198 3.198 0 0 0-.39 1.54c0 1.062.507 2 1.278 2.55a2.727 2.727 0 0 1-1.3-.384v.039c0 1.484.99 2.722 2.304 3.003-.422.123-.867.14-1.298.053.366 1.217 1.427 2.102 2.684 2.127A5.54 5.54 0 0 1 3 14.657a7.767 7.767 0 0 0 4.402 1.377c5.284 0 8.173-4.668 8.173-8.716 0-.132-.003-.265-.008-.396A6.068 6.068 0 0 0 17 5.337a5.475 5.475 0 0 1-1.65.482 3.05 3.05 0 0 0 1.263-1.695z" fill="#4DB9FE" fill-rule="evenodd"/></svg>