<?xml version="1.0" encoding="utf-8"?>
<!-- Generator: Adobe Illustrator 21.1.0, SVG Export Plug-In . SVG Version: 6.00 Build 0)  -->
<svg version="1.1" id="Layer_1" xmlns="http://www.w3.org/2000/svg" xmlns:xlink="http://www.w3.org/1999/xlink" x="0px" y="0px"
	 viewBox="0 0 469.1 170.5" style="enable-background:new 0 0 469.1 170.5;" xml:space="preserve">
<style type="text/css">
	.st0{fill:#A9AAAB;}
</style>
<g>
	<path class="st0" d="M206.2,39.2h6.8v34.4h23.8v6.1H213V148h-6.8V79.6h-16.6v-6.1h16.6V39.2z"/>
	<path class="st0" d="M296.7,91.4l-8.4-18.9h6.1c6,13.3,11.4,25.3,16.1,36.1c4.7,10.8,9.2,21.1,13.4,30.8c2.1-5.3,4.3-10.6,6.5-15.8
		c2.3-5.2,4.6-10.5,6.9-15.9c2.3-5.4,4.8-11,7.4-16.8c2.6-5.8,5.3-11.9,8.2-18.4h6.8c-6.1,13.4-12.2,26.8-18.2,40.3
		c-6,13.5-11.9,26.8-17.8,39.9c-4.2-9.2-8.1-18.4-11.9-27.3c-3.8-9-7.7-18.1-11.9-27.3l-22.6,54.7l-35.3-80.2h6.8
		c2.9,6.5,5.6,12.7,8.1,18.4c2.5,5.8,4.9,11.4,7.2,16.8c2.3,5.4,4.5,10.7,6.6,15.9c2.1,5.2,4.3,10.5,6.5,15.8
		c2.7-6.9,5.6-14.1,8.6-21.7C289,110.2,292.6,101.4,296.7,91.4z"/>
	<path class="st0" d="M373.8,46.1c0-1.7,0.6-3.1,1.8-4.3c1.2-1.2,2.5-1.8,4.1-1.8c1.4,0,2.7,0.6,3.9,1.8c1.2,1.2,1.8,2.6,1.8,4.3
		c0,1.7-0.6,3.1-1.8,4.2c-1.2,1.1-2.5,1.7-3.9,1.7c-1.6,0-2.9-0.6-4.1-1.7C374.4,49.2,373.8,47.8,373.8,46.1z M382.8,148h-6.6V72.4
		h6.6V148z"/>
	<path class="st0" d="M459.7,70.5l4.1,4.3l-28.5,26.9c5.7,7.8,11.4,15.5,17,23.1c5.6,7.6,11.2,15.3,16.8,23.1h-8
		c-5.1-7-10.2-14-15.3-20.9c-5.1-6.9-10.2-13.9-15.3-20.9l-13.7,12.9V148h-6.6V0h6.6v110.5c7.4-6.9,14.6-13.6,21.5-20
		C445.2,84,452.3,77.4,459.7,70.5z"/>
</g>
<path class="st0" d="M61.1,29.3L0,64.6v70.6l61.1,35.3l61.1-35.3V64.6L61.1,29.3z M116.3,131.7l-55.1,31.8L6,131.7V68l55.1-31.8
	L116.3,68V131.7z"/>
</svg>
