<svg xmlns="http://www.w3.org/2000/svg" viewBox="0 0 55.03 55.03"><defs><style>.a{fill:#01b3e4;}</style></defs><title>Icons</title><rect class="a" y="50.02" width="55.03" height="5"/><rect class="a" x="5" y="42.52" width="5" height="5"/><rect class="a" x="15" y="32.52" width="5" height="15.01"/><rect class="a" x="25.01" y="22.51" width="5" height="25.01"/><rect class="a" x="35.01" y="12.51" width="5" height="35.02"/><polygon class="a" points="45.02 47.52 50.02 47.52 50.02 7.5 55.02 7.5 47.52 0 40.02 7.5 45.02 7.5 45.02 47.52"/><polygon class="a" points="7.51 20.01 12.51 20.01 12.51 12.51 20.01 12.51 20.01 7.5 12.51 7.5 12.51 0 7.51 0 7.51 7.5 0 7.5 0 12.51 7.51 12.51 7.51 20.01"/></svg>