<svg xmlns="http://www.w3.org/2000/svg" viewBox="0 0 54.49 60.03"><defs><style>.a{fill:#691abf;}</style></defs><title>Icons</title><path class="a" d="M3.2,27.51v2.19L0,42.52H3.2V45a7.51,7.51,0,0,0,7.5,7.5h2.5V60h5V47.52h-7.5A2.5,2.5,0,0,1,8.21,45v-7.5H6.41l1.72-6.9.08-3.11a12.48,12.48,0,0,1,8.94-11.92,17.4,17.4,0,0,0-1.43,6.92v2.19l-3.2,12.81h3.2V40a7.51,7.51,0,0,0,7.5,7.5h2.5V55h5V42.52h-7.5a2.5,2.5,0,0,1-2.5-2.5v-7.5h-1.8l1.72-6.9.08-3.11a12.48,12.48,0,0,1,8.94-11.92,17.4,17.4,0,0,0-1.43,6.92V19.7L25,32.52h3.2V35a7.51,7.51,0,0,0,7.5,7.5h2.5V50h5V37.52h-7.5a2.5,2.5,0,0,1-2.5-2.5v-7.5h-1.8l1.72-6.9.08-3.11A12.52,12.52,0,0,1,45.73,5V5h0A12.45,12.45,0,0,1,52,6.68l2.51-4.33A17.47,17.47,0,0,0,45.74,0h0a17.45,17.45,0,0,0-12.5,5.28V5a17.45,17.45,0,0,0-12.51,5.28V10A17.53,17.53,0,0,0,3.2,27.51Z"/></svg>