<?xml version="1.0" encoding="utf-8"?>
<!-- Generator: Adobe Illustrator 21.1.0, SVG Export Plug-In . SVG Version: 6.00 Build 0)  -->
<svg version="1.1" id="Capa_1" xmlns="http://www.w3.org/2000/svg" xmlns:xlink="http://www.w3.org/1999/xlink" x="0px" y="0px"
	 viewBox="0 0 2.8 2.8" style="enable-background:new 0 0 2.8 2.8;" xml:space="preserve">
<style type="text/css">
	.st0{fill:#959696;}
</style>
<g>
	<g id="post-linkedin">
		<path class="st0" d="M2.5,0H0.3C0.1,0,0,0.1,0,0.3v2.2c0,0.2,0.1,0.3,0.3,0.3h2.2c0.2,0,0.3-0.1,0.3-0.3V0.3C2.8,0.1,2.6,0,2.5,0z
			 M0.8,2.3H0.4V1.1h0.4V2.3z M0.6,0.9c-0.1,0-0.2-0.1-0.2-0.2s0.1-0.2,0.2-0.2s0.2,0.1,0.2,0.2S0.8,0.9,0.6,0.9z M2.3,2.3H1.9V1.6
			c0-0.1-0.1-0.2-0.2-0.2S1.5,1.5,1.5,1.6v0.7H1.1V1.1h0.4v0.2c0.1-0.1,0.2-0.2,0.3-0.2c0.3,0,0.5,0.2,0.5,0.5V2.3z"/>
	</g>
</g>
</svg>
