<?xml version="1.0" encoding="utf-8"?>
<!-- Generator: Adobe Illustrator 21.1.0, SVG Export Plug-In . SVG Version: 6.00 Build 0)  -->
<svg version="1.1" id="Layer_1" xmlns="http://www.w3.org/2000/svg" xmlns:xlink="http://www.w3.org/1999/xlink" x="0px" y="0px"
	 viewBox="0 0 681 576.3" style="enable-background:new 0 0 681 576.3;" xml:space="preserve">
<style type="text/css">
	.st0{fill:#FFFFFF;}
	.st1{fill:#22262D;}
	.st2{fill:#EBEBEB;}
	.st3{clip-path:url(#SVGID_2_);}
	.st4{fill:#F7931E;}
	.st5{fill:#F15A29;}
	.st6{fill:#BC2A3C;}
	.st7{clip-path:url(#SVGID_4_);}
	.st8{fill:url(#SVGID_5_);}
	.st9{clip-path:url(#SVGID_7_);}
	.st10{fill:url(#SVGID_8_);}
	.st11{clip-path:url(#SVGID_10_);}
	.st12{fill:url(#SVGID_11_);}
	.st13{clip-path:url(#SVGID_13_);}
	.st14{fill:url(#SVGID_14_);}
	.st15{clip-path:url(#SVGID_16_);}
	.st16{fill:url(#SVGID_17_);}
	.st17{clip-path:url(#SVGID_19_);}
	.st18{fill:url(#SVGID_20_);}
	.st19{clip-path:url(#SVGID_22_);}
	.st20{clip-path:url(#SVGID_25_);}
	.st21{opacity:0.69;clip-path:url(#SVGID_26_);}
	.st22{clip-path:url(#SVGID_28_);}
	.st23{fill:url(#SVGID_29_);}
	.st24{clip-path:url(#SVGID_26_);}
	.st25{fill:url(#SVGID_30_);}
</style>
<title>Third-Illustration</title>
<g>
	<circle class="st0" cx="603.5" cy="219.3" r="6"/>
	<circle class="st0" cx="623.5" cy="219.3" r="6"/>
	<circle class="st0" cx="643.5" cy="219.3" r="6"/>
	<path class="st1" d="M662.1,403.6v143.3c0,5.4-4.4,9.8-9.8,9.8c0,0,0,0,0,0H279.4l-11.6,4.7h385.7c6.8,0,12.4-5.5,12.4-12.4V402.1
		L662.1,403.6z"/>
	
		<image style="overflow:visible;opacity:0.35;enable-background:new    ;" width="613" height="394" xlink:href="6828D61.png"  transform="matrix(1 0 0 1 68 182.34)">
	</image>
	<path class="st1" d="M95.5,197.4h557.9c6.8,0,12.4,5.5,12.4,12.4V549c0,6.8-5.5,12.4-12.4,12.4H95.5c-6.8,0-12.4-5.5-12.4-12.4
		V209.7C83.2,202.9,88.7,197.4,95.5,197.4z"/>
	<path class="st2" d="M88,238.7h573l0,0v308.8c0,4.9-4,8.8-8.8,8.8c0,0,0,0,0,0H99.5c-6.3,0-11.5-5.1-11.5-11.4c0,0,0,0,0,0V238.7
		L88,238.7z"/>
	<g>
		<defs>
			<path id="SVGID_1_" d="M280-12.7v251H88v306.5c0,6.3,5.1,11.5,11.5,11.5h552.7c4.9,0,8.8-4,8.8-8.8c0,0,0,0,0,0V-12.7H280z"/>
		</defs>
		<clipPath id="SVGID_2_">
			<use xlink:href="#SVGID_1_"  style="overflow:visible;"/>
		</clipPath>
		<g class="st3">
			<path class="st4" d="M733.3,253.1c0,2.4,0.2,4.8,0.5,7.1c-9.1,2-17.5,6.4-24.5,12.5c-28.4,1.1-51.4,23.5-53.2,51.9H656
				c-29.3,0-53.1,23.8-53.1,53.1c0,7.3,1.5,14.5,4.4,21.2c-3.5,1.4-6.8,3.4-9.7,5.8c-16.3-5.7-34.5-2.7-48.1,8
				c-2.5-0.3-5.1-0.5-7.6-0.5c-17.9,0.3-34.3,10-43.2,25.5c-8.4-8.4-21.6-9.4-31.2-2.5c-3.1-1.5-6.3-2.8-9.6-3.7V135.3h-57v300.5
				c-9.9-1.6-20,1.5-27.3,8.4c-8-6-18.3-8-28-5.3c-9.4-17.8-27.8-28.9-47.9-28.9c-1.2,0-2.3,0-3.5,0.1c-0.6-33.1-27.9-59.5-61-59
				c-4.6,0.1-9.2,0.7-13.7,1.8c-5.7-6.3-12.7-11.3-20.6-14.7c9.5-25.7-3.7-54.3-29.5-63.8c-3.4-1.3-7-2.1-10.7-2.6
				c8.5-22.7-3-48-25.7-56.5c-1.3-0.5-2.6-0.9-3.9-1.3c0-0.5,0-1,0-1.5c0-24.4-17.4-45.4-41.3-49.9v413.6h691V202.5
				c-26.2,2.3-46.3,24.3-46.3,50.6"/>
			<path class="st5" d="M751.4,292.3c-19.1-5.7-39.4,4.4-46.3,23.2c-12.3,1.1-23.2,8.5-28.7,19.6c-27.7-4.2-53.6,15-57.7,42.7
				c-1.8,12.3,0.9,24.9,7.7,35.4c-0.9,0.9-1.7,1.9-2.6,2.8c-7.6,2.3-14.1,7.3-18.3,14h-0.5c-2.6,0-5.2,0.3-7.7,0.9
				c-12.7-14.9-35-16.7-49.9-4c-3.3,2.8-6,6.2-8.1,10c-12.7-3.3-25.6,4.4-28.9,17.1c0,0.1-0.1,0.3-0.1,0.4c-4.9-1.3-10.2,0-14,3.4
				c-9.3-3.8-19.9-3-28.5,2.2c-6.4-4.5-14.1-6.9-21.9-6.9V135.3h-33V454c-6.6-0.7-13.2,2-17.5,7.1c-4.1-0.7-8.2,0-11.9,1.9
				c-9.4-9.2-24.6-9-33.7,0.5c-0.4,0.5-0.9,0.9-1.3,1.4c-2.3-0.6-4.6-0.9-7-0.9l0,0c-4.3-20-24-32.7-43.9-28.4
				c-3.5,0.8-7,2-10.1,3.8c-9.8-2.6-20.2-1.9-29.6,1.8c-5.2-11.4-15.5-19.6-27.7-22.4c-7.4-11.2-19.9-17.9-33.4-17.9H196
				c-5.2-17.3-18-31.3-34.7-38.1c4.9-22-8.9-43.8-30.9-48.7c-2.1-0.5-4.1-0.8-6.2-0.9c-4.1-16.8-18.9-28.7-36.2-29.3v93.5
				c1.1,1.6,2.4,3.1,3.8,4.6c-1.4,1.8-2.6,3.7-3.8,5.6v188.7h691V262.6c-15.1,2.1-26.6,14.5-27.7,29.7"/>
			<path class="st6" d="M765.3,337c-17.1,0-32.9,9.5-40.8,24.7c-0.5,0-1,0-1.5,0c-8,0-15.7,2.4-22.3,6.8
				c-19.6-10.2-43.8-2.5-53.9,17.1c-4.1,8-5.5,17.1-3.8,25.9c-11.4,5.6-19.9,15.9-23.1,28.3c-2-0.3-4-0.4-6-0.4
				c-9.6,0-19,2.9-27,8.2c-15.6-5.5-33,0.1-42.5,13.7c-14.8-5.1-31.1,0.3-39.9,13.2c-6.7-2.6-14.3-1.1-19.7,3.7
				c-3.9-1.3-8.1-1.5-12.1-0.6c-9.2-8.7-22.6-11.4-34.5-6.8V135.3h-17v334.1c-7.4-1-14.7,2.4-18.7,8.8c-6.2-3.8-14-3.7-20.2,0.2
				c-8.6-4.1-18.8-2.4-25.7,4.2c-5.4-4.2-12.5-5.8-19.2-4.3c-7.8-14.2-25.6-19.4-39.7-11.6c-1.2,0.7-2.4,1.4-3.5,2.3
				c-9.7-13.6-28.3-17.6-42.7-9.1c-10.2-10-25.2-13.3-38.6-8.4c-9.8-24.9-38-37.1-62.9-27.3c-2.8,1.1-5.5,2.5-8,4.1
				c-2.7-2.8-5.8-5.3-9.1-7.4c0.7-3.3,1-6.6,1-10c0-25.7-20-46.9-45.6-48.4v213.9h691V339.1c-4.5-1.4-9.3-2.2-14-2.1"/>
		</g>
	</g>
	<g>
		<defs>
			<path id="SVGID_3_" d="M431.2,34.9c-0.1,19.3,0.4,34.9,1.1,34.9s1.4-15.6,1.5-34.9S433.4,0,432.7,0S431.3,15.6,431.2,34.9"/>
		</defs>
		<clipPath id="SVGID_4_">
			<use xlink:href="#SVGID_3_"  style="overflow:visible;"/>
		</clipPath>
		<g class="st7">
			
				<linearGradient id="SVGID_5_" gradientUnits="userSpaceOnUse" x1="-1225.804" y1="-28.6658" x2="-1222.934" y2="-28.6658" gradientTransform="matrix(-0.64 -3.797773e-03 3.797773e-03 -0.64 -352.1776 11.8658)">
				<stop  offset="0" style="stop-color:#FFFFFF"/>
				<stop  offset="0.85" style="stop-color:#B0B0B0"/>
				<stop  offset="1" style="stop-color:#B0B0B0"/>
			</linearGradient>
			<polygon class="st8" points="430.6,69.7 431,0 434.3,0 433.9,69.8 			"/>
		</g>
	</g>
	<g>
		<defs>
			<path id="SVGID_6_" d="M365.1,223.9c-0.1,10.8,4.9-6.3,12.8-23.4c6.1-13.4,14-26.9,22.5-26.8c19.3,0.1,35-15.4,35.1-34.7
				s-15.4-35-34.7-35.1l0,0C381.4,103.9,365.2,204.7,365.1,223.9"/>
		</defs>
		<clipPath id="SVGID_7_">
			<use xlink:href="#SVGID_6_"  style="overflow:visible;"/>
		</clipPath>
		<g class="st9">
			
				<linearGradient id="SVGID_8_" gradientUnits="userSpaceOnUse" x1="-429.1594" y1="195.1989" x2="-426.2894" y2="195.1989" gradientTransform="matrix(10.8898 6.462149e-02 -6.462149e-02 10.8898 5057.4185 -1928.8418)">
				<stop  offset="0" style="stop-color:#C7C7C7"/>
				<stop  offset="0.15" style="stop-color:#BCBCBC"/>
				<stop  offset="0.41" style="stop-color:#A0A0A0"/>
				<stop  offset="0.75" style="stop-color:#717171"/>
				<stop  offset="0.85" style="stop-color:#636363"/>
				<stop  offset="1" style="stop-color:#636363"/>
			</linearGradient>
			<polygon class="st10" points="364.2,234.7 365,103.4 436.3,103.9 435.5,235.1 			"/>
		</g>
	</g>
	<g>
		<defs>
			<path id="SVGID_9_" d="M428.4,138.9c-0.1,19.3,15.4,35,34.7,35.1c0,0,0,0,0,0c19.3,0.1,34.5,69.9,34.6,50.7
				s-14.9-120.4-34.2-120.5h-0.2C444.1,104.2,428.5,119.7,428.4,138.9"/>
		</defs>
		<clipPath id="SVGID_10_">
			<use xlink:href="#SVGID_9_"  style="overflow:visible;"/>
		</clipPath>
		<g class="st11">
			
				<linearGradient id="SVGID_11_" gradientUnits="userSpaceOnUse" x1="-531.1815" y1="140.8878" x2="-528.3215" y2="140.8878" gradientTransform="matrix(-8.0128 0.773 -0.773 -8.0128 -3664.5251 1711.7137)">
				<stop  offset="0" style="stop-color:#EDEDED"/>
				<stop  offset="1" style="stop-color:#7D7D7D"/>
			</linearGradient>
			<polygon class="st12" points="414.9,105.6 497.1,97.6 511.1,242.7 428.9,250.7 			"/>
		</g>
	</g>
	<g>
		<defs>
			<path id="SVGID_12_" d="M397.8,144.2c-0.1,12.1,0.7,21.8,2.3,29.4l63.3,0.4c1.6-7.6,2.5-17.3,2.6-29.4
				c0.3-51.1-14.5-127.1-33.3-127.2l0,0C413.8,17.5,398.2,93.2,397.8,144.2"/>
		</defs>
		<clipPath id="SVGID_13_">
			<use xlink:href="#SVGID_12_"  style="overflow:visible;"/>
		</clipPath>
		<g class="st13">
			
				<linearGradient id="SVGID_14_" gradientUnits="userSpaceOnUse" x1="-492.6859" y1="167.4269" x2="-489.8159" y2="167.4269" gradientTransform="matrix(-22.2496 -0.132 0.132 -22.2496 -10519.9375 3756.0596)">
				<stop  offset="0" style="stop-color:#FFFFFF"/>
				<stop  offset="0.53" style="stop-color:#ABABAB"/>
				<stop  offset="0.66" style="stop-color:#A7A7A7"/>
				<stop  offset="0.78" style="stop-color:#9B9B9B"/>
				<stop  offset="0.9" style="stop-color:#888888"/>
				<stop  offset="1" style="stop-color:#737373"/>
			</linearGradient>
			<polygon class="st14" points="396.8,174 397.7,17 467.1,17.4 466.2,174.4 			"/>
		</g>
	</g>
	<g>
		<defs>
			<path id="SVGID_15_" d="M419,68.8c-0.1,11.9,5.8,21.6,13.2,21.6s13.4-9.6,13.4-21.5s-5.8-21.6-13.2-21.6h0
				C425.1,47.3,419.1,56.9,419,68.8"/>
		</defs>
		<clipPath id="SVGID_16_">
			<use xlink:href="#SVGID_15_"  style="overflow:visible;"/>
		</clipPath>
		<g class="st15">
			
				<linearGradient id="SVGID_17_" gradientUnits="userSpaceOnUse" x1="-466.6133" y1="161.5278" x2="-463.7534" y2="161.5278" gradientTransform="matrix(-0.2128 35.8594 -35.8594 -0.2128 6125.5293 16791.082)">
				<stop  offset="0" style="stop-color:#565656"/>
				<stop  offset="0.85" style="stop-color:#B0B0B0"/>
				<stop  offset="1" style="stop-color:#B0B0B0"/>
			</linearGradient>
			<polygon class="st16" points="418.6,90.4 418.9,47.1 445.9,47.3 445.6,90.6 			"/>
		</g>
	</g>
	<g>
		<defs>
			<path id="SVGID_18_" d="M432.2,89c-3,0-6-2-8.2-5.7c-4.9-9.1-4.8-20,0.2-29c2.3-3.6,5.2-5.6,8.3-5.6s6,2,8.2,5.7
				c4.9,9.1,4.8,20-0.2,29C438.2,87,435.2,89,432.2,89L432.2,89 M421.8,52.8c-5.5,9.9-5.6,22-0.2,31.9c2.5,4.2,6.2,7,10.5,7
				s8-2.8,10.6-6.9c5.5-9.9,5.6-22,0.2-31.9c-2.5-4.2-6.2-7-10.5-7l0,0C428.1,45.9,424.4,48.7,421.8,52.8"/>
		</defs>
		<clipPath id="SVGID_19_">
			<use xlink:href="#SVGID_18_"  style="overflow:visible;"/>
		</clipPath>
		<g class="st17">
			
				<linearGradient id="SVGID_20_" gradientUnits="userSpaceOnUse" x1="-447.3248" y1="210.1046" x2="-444.4548" y2="210.1046" gradientTransform="matrix(9.4278 -7.4403 7.4403 9.4278 3071.864 -5228.7559)">
				<stop  offset="0" style="stop-color:#FFFFFF"/>
				<stop  offset="0.85" style="stop-color:#B0B0B0"/>
				<stop  offset="1" style="stop-color:#B0B0B0"/>
			</linearGradient>
			<polygon class="st18" points="395.3,63.5 435.7,31.6 469.3,74.2 428.9,106.1 			"/>
		</g>
	</g>
	<g>
		<defs>
			<rect id="SVGID_21_" x="422.5" y="61.8" width="12.5" height="23.7"/>
		</defs>
		<clipPath id="SVGID_22_">
			<use xlink:href="#SVGID_21_"  style="overflow:visible;"/>
		</clipPath>
		<g class="st19">
			<path class="st0" d="M434.5,84.8c-6.2,0-11.1-8.2-11.1-18.2c0-1.6,0.2-3.3,0.4-4.9c-0.9,2.5-1.4,5.2-1.4,7.9
				c0,8.7,4.3,15.8,9.6,15.8c1,0,2-0.2,2.9-0.7L434.5,84.8"/>
		</g>
	</g>
	<g>
		<g>
			<defs>
				<rect id="SVGID_23_" x="398.6" y="121.8" width="32.6" height="54.5"/>
			</defs>
			<defs>
				<path id="SVGID_24_" d="M429,121.9c-0.3,46.5,0.6,121.3,2.2,121.3s3.6-84.2,3.7-121.2c-0.8-0.8-1.9-1.3-3.1-1.4
					C430.7,120.6,429.7,121.1,429,121.9"/>
			</defs>
			<clipPath id="SVGID_25_">
				<use xlink:href="#SVGID_23_"  style="overflow:visible;"/>
			</clipPath>
			<clipPath id="SVGID_26_" class="st20">
				<use xlink:href="#SVGID_24_"  style="overflow:visible;"/>
			</clipPath>
			<g class="st21">
				<g>
					<defs>
						<path id="SVGID_27_" d="M430.1,174l0.3-52.2c-7.9,0.6-24.5,10.1-32.5,18.2c-0.2,3.7,0,2.3,0,5.8c-0.1,11.6,0.8,20.8,2.3,28
							L430.1,174z"/>
					</defs>
					<clipPath id="SVGID_28_">
						<use xlink:href="#SVGID_27_"  style="overflow:visible;"/>
					</clipPath>
					<g class="st22">
						
							<linearGradient id="SVGID_29_" gradientUnits="userSpaceOnUse" x1="-428.6005" y1="193.2252" x2="-425.6905" y2="193.2252" gradientTransform="matrix(11.1498 6.421939e-02 -6.421939e-02 11.1498 5186.5962 -1979.1261)">
							<stop  offset="0" style="stop-color:#7A7A7A"/>
							<stop  offset="1" style="stop-color:#000000"/>
						</linearGradient>
						<polygon class="st23" points="397.4,174 397.7,121.6 430.7,121.8 430.4,174.2 						"/>
					</g>
				</g>
			</g>
			<g class="st24">
				
					<linearGradient id="SVGID_30_" gradientUnits="userSpaceOnUse" x1="-877.9913" y1="-14.6732" x2="-875.1312" y2="-14.6732" gradientTransform="matrix(-1.19 -7.061485e-03 7.061485e-03 -1.19 -610.5748 158.1785)">
					<stop  offset="0" style="stop-color:#FFFFFF"/>
					<stop  offset="1" style="stop-color:#919191"/>
				</linearGradient>
				<polygon class="st25" points="428,243.2 428.7,120.5 435.6,120.5 434.9,243.2 				"/>
			</g>
		</g>
		<circle class="st0" cx="604.5" cy="216.3" r="6"/>
		<circle class="st0" cx="624.5" cy="216.3" r="6"/>
		<circle class="st0" cx="644.5" cy="216.3" r="6"/>
	</g>
</g>
</svg>
