<?xml version="1.0" encoding="utf-8"?>
<!-- Generator: Adobe Illustrator 21.1.0, SVG Export Plug-In . SVG Version: 6.00 Build 0)  -->
<svg version="1.1" id="Layer_1" xmlns="http://www.w3.org/2000/svg" xmlns:xlink="http://www.w3.org/1999/xlink" x="0px" y="0px"
	 viewBox="0 0 20.4 16.8" style="enable-background:new 0 0 20.4 16.8;" xml:space="preserve">
<style type="text/css">
	.st0{fill:#FFFFFF;enable-background:new    ;}
</style>
<path id="Twitter_Icon" class="st0" d="M20.4,2c-0.8,0.3-1.6,0.6-2.4,0.7c0.9-0.5,1.5-1.4,1.8-2.3c-0.8,0.5-1.7,0.8-2.7,1
	C16.4,0.5,15.3,0,14.1,0c-2.3,0-4.2,1.9-4.2,4.2c0,0,0,0,0,0c0,0.3,0,0.6,0.1,1C6.7,5,3.5,3.4,1.4,0.8C0.3,2.7,0.9,5.2,2.7,6.4
	C2,6.4,1.4,6.2,0.8,5.9V6c0,2,1.4,3.7,3.4,4.1c-0.4,0.1-0.7,0.2-1.1,0.1c-0.3,0-0.5,0-0.8-0.1c0.5,1.7,2.1,2.9,3.9,2.9
	c-1.7,1.4-4,2-6.2,1.8c5.5,3.6,12.9,2,16.4-3.5c1.3-2,1.9-4.3,1.9-6.6c0-0.2,0-0.4,0-0.6C19.1,3.6,19.8,2.8,20.4,2L20.4,2L20.4,2z"
	/>
</svg>
